<svg xmlns="http://www.w3.org/2000/svg" version="1.1" xmlns:xlink="http://www.w3.org/1999/xlink" xmlns:svgjs="http://svgjs.dev/svgjs" viewBox="0 0 17.865089656254995 6.327820818497771"><g transform="matrix(0.7583771770597892,0,0,0.7583771770597892,6.928178616472081,2.3844716760249387)"><g clip-path="url(#SvgjsClipPath13516)"><g clip-path="url(#SvgjsClipPath1351404a0c36e-83c2-4ff8-bd25-50a6a299090f)"><path d=" M -3.187250042329549 2.49068368126631 L -3.187250042329549 1.5667980028997304 C -3.187250042329549 1.0358756673297955 -3.398158118931114 0.5266985283842809 -3.773576902696016 0.15127974461937876 C -4.148995686460914 -0.2241390391455199 -4.6581728254064325 -0.4350471157470813 -5.189095160976364 -0.4350471157470813 L -5.281910680201455 -0.4350471157470813 C -5.280789267261927 -0.8173445167840226 -4.971154599184604 -1.1269791848613393 -4.588857198147676 -1.1281005978008538 L -1.0934247441306706 -1.1281005978008538 C -0.711127343093743 -1.1269791848613324 -0.40149267501642694 -0.8173445167840157 -0.4003712620769022 -0.4350471157470813 L -0.49318678130199345 -0.4350471157470813 C -1.024100582368768 -0.4350471163177918 -1.533268179697548 -0.2241360776196627 -1.9086722253514803 0.15128537444432255 C -2.2840762710054126 0.5267068265083112 -2.4949637013814527 1.0358842024036627 -2.494939084429576 1.5667980028997304 L -2.494939084429576 2.49068368126631 L -0.4007425241538032 2.49068368126631 C -0.40186393709333146 2.872981082303247 -0.7114986051706547 3.1826157503805605 -1.0937960062075858 3.183737163320078 L -4.589228460224584 3.183737163320078 C -4.971525861261519 3.1826157503805534 -5.281160529338832 2.8729810823032373 -5.282281942278357 2.4906836812663062 Z M -3.3851327293174487 -0.4350471157470813 C -3.1682474373458116 -0.23950222312687486 -2.9844192144458748 -0.010163585964241273 -2.840769709062277 0.24408403842292925 C -2.69712020367868 -0.010163585964244826 -2.5132919807787393 -0.23950222312687486 -2.296406688807102 -0.4350471157470813 Z M -2.1709201068147794 1.566798002899734 L -2.1709201068147794 2.1674072278053123 L -0.40000000000000036 2.1674072278053123 L -0.40000000000000036 -0.11177066228608412 L -0.4928155192250925 -0.11177066228608412 C -1.4198271476286175 -0.111719403694444 -2.171291370308837 0.6397863730790485 -2.171291368891681 1.5667980028997268 Z M -1.0929606665345473 1.4739824836746387 L -1.0929606665345473 0.7849200689475451 C -1.3100740297657585 0.9517267954186999 -1.4479506764781873 1.2013844113194498 -1.4735042953574302 1.4739824836746387 Z M -3.5105264957905495 1.566798002899734 C -3.5105264957905495 1.1216139135645011 -3.687375186690922 0.6946634055048897 -4.002167875136223 0.3798707170595925 C -4.316960563581524 0.06507802861429535 -4.743911071641131 -0.11177066228608057 -5.189095160976364 -0.11177066228608057 L -5.281910680201455 -0.11177066228608057 L -5.281910680201455 2.1674072278053123 L -3.5108977578674545 2.1674072278053123 L -3.5108977578674545 1.566798002899734 Z M -4.588485936070785 1.4739824836746387 L -4.207942307247903 1.4739824836746387 C -4.233484944098984 1.2013810260513755 -4.371363858864788 0.9517193033144593 -4.588485936070782 0.7849200689475451 Z" fill="#e8a941" transform="matrix(1,0,0,1,0,0)" fill-rule="evenodd"></path></g></g><g><path d=" M 1.0515 0.058499999999999774 L 0.8625 1.1384999999999998 L 0.591 1.1384999999999998 L 0.66 0.7484999999999998 L 0.3675 0.7484999999999998 L 0.3 1.1384999999999998 L 0.0285 1.1384999999999998 L 0.219 0.058499999999999774 L 0.489 0.058499999999999774 L 0.40800000000000003 0.5144999999999998 L 0.7005 0.5144999999999998 L 0.7815 0.058499999999999774 L 1.0515 0.058499999999999774 M 1.5270322265625 0.3959999999999998 Q 1.6890322265625 0.3959999999999998 1.7715322265625 0.4664999999999998 Q 1.8360322265625 0.5219999999999998 1.8360322265625 0.6209999999999999 Q 1.8360322265625 0.6539999999999999 1.8285322265625 0.6929999999999998 L 1.7970322265625 0.8684999999999998 Q 1.7685322265624999 1.0274999999999999 1.6642822265625 1.0935 Q 1.5600322265625 1.1594999999999998 1.3860322265625 1.1594999999999998 Q 1.2120322265625 1.1594999999999998 1.1310322265625 1.0935 Q 1.0710322265625 1.0439999999999998 1.0710322265625 0.9449999999999998 Q 1.0710322265625 0.9104999999999999 1.0785322265625 0.8684999999999998 L 1.1100322265625 0.6929999999999998 Q 1.1625322265625 0.3959999999999998 1.5270322265625 0.3959999999999998 M 1.5675322265625 0.7229999999999999 Q 1.5705322265625 0.7079999999999999 1.5705322265625 0.6847499999999999 Q 1.5705322265625 0.6614999999999998 1.5510322265625 0.6329999999999998 Q 1.5315322265625 0.6044999999999998 1.4827822265625001 0.6044999999999998 Q 1.4340322265625 0.6044999999999998 1.4010322265625 0.6367499999999998 Q 1.3680322265625 0.6689999999999998 1.3590322265625 0.7229999999999999 L 1.3395322265625 0.8354999999999999 Q 1.3365322265625 0.8504999999999998 1.3365322265625 0.8737499999999998 Q 1.3365322265625 0.8969999999999998 1.3560322265625 0.9239999999999998 Q 1.3755322265625 0.9509999999999998 1.4242822265625001 0.9509999999999998 Q 1.4730322265625 0.9509999999999998 1.5060322265625001 0.9172499999999999 Q 1.5390322265625 0.8834999999999998 1.5480322265625 0.8354999999999999 L 1.5675322265625 0.7229999999999999 M 2.245571044921875 1.1594999999999998 Q 2.071571044921875 1.1594999999999998 1.995071044921875 1.0815 Q 1.938071044921875 1.0244999999999997 1.938071044921875 0.9284999999999999 Q 1.938071044921875 0.8969999999999998 1.944071044921875 0.8609999999999998 L 2.046071044921875 0.28049999999999986 L 2.320571044921875 0.16649999999999987 L 2.277071044921875 0.4169999999999998 L 2.691071044921875 0.4169999999999998 L 2.653571044921875 0.6284999999999998 L 2.239571044921875 0.6284999999999998 L 2.209571044921875 0.7979999999999998 Q 2.203571044921875 0.8264999999999998 2.203571044921875 0.8489999999999999 Q 2.203571044921875 0.9434999999999998 2.293571044921875 0.9434999999999998 Q 2.341571044921875 0.9434999999999998 2.373821044921875 0.9029999999999998 Q 2.406071044921875 0.8624999999999998 2.418071044921875 0.7949999999999998 L 2.667071044921875 0.7949999999999998 Q 2.604071044921875 1.1594999999999998 2.245571044921875 1.1594999999999998 M 3.051087890625 1.1594999999999998 Q 2.739087890625 1.1594999999999998 2.739087890625 0.9434999999999998 Q 2.739087890625 0.9134999999999999 2.745087890625 0.8789999999999998 L 2.776587890625 0.6929999999999998 Q 2.802087890625 0.5489999999999998 2.909337890625 0.4717499999999998 Q 3.016587890625 0.39449999999999985 3.193587890625 0.39449999999999985 Q 3.4950878906250002 0.39449999999999985 3.4950878906250002 0.6224999999999998 Q 3.4950878906250002 0.6554999999999999 3.489087890625 0.6944999999999999 L 3.4710878906250002 0.8009999999999998 L 3.0135878906249998 0.8009999999999998 L 3.007587890625 0.8354999999999999 Q 3.004587890625 0.8534999999999998 3.004587890625 0.8684999999999998 Q 3.004587890625 0.9509999999999998 3.102087890625 0.9509999999999998 Q 3.138087890625 0.9509999999999998 3.163587890625 0.9284999999999999 Q 3.189087890625 0.9059999999999998 3.193587890625 0.8759999999999999 L 3.442587890625 0.8789999999999998 Q 3.393087890625 1.1594999999999998 3.051087890625 1.1594999999999998 M 3.231087890625 0.7094999999999998 Q 3.2370878906250002 0.6839999999999998 3.2370878906250002 0.6622499999999998 Q 3.2370878906250002 0.6404999999999998 3.217587890625 0.6179999999999999 Q 3.198087890625 0.5954999999999998 3.155337890625 0.5954999999999998 Q 3.112587890625 0.5954999999999998 3.077337890625 0.6239999999999999 Q 3.042087890625 0.6524999999999999 3.028587890625 0.7094999999999998 L 3.231087890625 0.7094999999999998 M 3.8550908203125 0.9074999999999999 Q 3.8550908203125 0.9464999999999999 3.8948408203125 0.9464999999999999 Q 3.9345908203125 0.9464999999999999 3.9615908203125 0.9314999999999998 L 3.9540908203125 1.1009999999999998 Q 3.8820908203125 1.1594999999999998 3.7920908203125 1.1594999999999998 Q 3.6555908203125 1.1594999999999998 3.6150908203125 1.0964999999999998 Q 3.5895908203125 1.0559999999999998 3.5895908203125 1.0079999999999998 Q 3.5895908203125 0.9599999999999999 3.5955908203125 0.9239999999999998 L 3.7590908203125 -2.220446049250313e-16 L 4.0140908203125 -2.220446049250313e-16 L 3.8565908203125 0.8894999999999998 Q 3.8550908203125 0.8984999999999999 3.8550908203125 0.9074999999999999 M 5.03553076171875 0.058499999999999774 Q 5.20653076171875 0.058499999999999774 5.27853076171875 0.13349999999999973 Q 5.3325307617187505 0.19049999999999978 5.3325307617187505 0.27749999999999986 Q 5.3325307617187505 0.3074999999999998 5.32653076171875 0.3404999999999998 L 5.31303076171875 0.41249999999999987 Q 5.29653076171875 0.4979999999999999 5.24928076171875 0.5459999999999998 Q 5.20203076171875 0.5939999999999999 5.1660307617187495 0.5939999999999999 L 5.16453076171875 0.6059999999999999 Q 5.20653076171875 0.6059999999999999 5.25003076171875 0.6524999999999999 Q 5.29353076171875 0.6989999999999998 5.29353076171875 0.7619999999999998 Q 5.29353076171875 0.7874999999999999 5.28753076171875 0.8159999999999998 L 5.27853076171875 0.8624999999999998 Q 5.25453076171875 0.9914999999999998 5.16378076171875 1.065 Q 5.07303076171875 1.1384999999999998 4.91103076171875 1.1384999999999998 L 4.41003076171875 1.1384999999999998 L 4.60053076171875 0.058499999999999774 L 5.03553076171875 0.058499999999999774 M 4.90053076171875 0.6974999999999998 L 4.75803076171875 0.6974999999999998 L 4.7220307617187505 0.9044999999999999 L 4.86453076171875 0.9044999999999999 Q 4.86753076171875 0.9044999999999999 4.87053076171875 0.9044999999999999 Q 4.93953076171875 0.9044999999999999 4.98003076171875 0.8722499999999999 Q 5.02053076171875 0.8399999999999999 5.02053076171875 0.7934999999999999 Q 5.02053076171875 0.6974999999999998 4.90053076171875 0.6974999999999998 M 4.94103076171875 0.29249999999999987 L 4.82853076171875 0.29249999999999987 L 4.78953076171875 0.5159999999999998 L 4.90053076171875 0.5159999999999998 Q 5.04453076171875 0.5159999999999998 5.04453076171875 0.3899999999999998 Q 5.04453076171875 0.3464999999999998 5.01828076171875 0.3194999999999998 Q 4.99203076171875 0.29249999999999987 4.94103076171875 0.29249999999999987 M 6.10350439453125 0.9074999999999999 Q 6.10350439453125 0.9464999999999999 6.14325439453125 0.9464999999999999 Q 6.18300439453125 0.9464999999999999 6.21000439453125 0.9314999999999998 L 6.20250439453125 1.1009999999999998 Q 6.1305043945312505 1.1594999999999998 6.04050439453125 1.1594999999999998 Q 5.87550439453125 1.1594999999999998 5.85750439453125 1.0394999999999999 Q 5.78250439453125 1.1594999999999998 5.63700439453125 1.1594999999999998 Q 5.39100439453125 1.1594999999999998 5.39100439453125 0.9479999999999998 Q 5.39100439453125 0.9119999999999998 5.39850439453125 0.8684999999999998 L 5.43000439453125 0.6929999999999998 Q 5.45400439453125 0.5579999999999998 5.54025439453125 0.4777499999999998 Q 5.62650439453125 0.39749999999999985 5.76525439453125 0.39749999999999985 Q 5.90400439453125 0.39749999999999985 5.95350439453125 0.46199999999999986 L 5.96100439453125 0.4169999999999998 L 6.18900439453125 0.4169999999999998 L 6.1050043945312495 0.8894999999999998 Q 6.10350439453125 0.8984999999999999 6.10350439453125 0.9074999999999999 M 5.65950439453125 0.8354999999999999 Q 5.65650439453125 0.8489999999999999 5.65650439453125 0.8729999999999998 Q 5.65650439453125 0.8969999999999998 5.67900439453125 0.9202499999999998 Q 5.70150439453125 0.9434999999999998 5.75475439453125 0.9434999999999998 Q 5.80800439453125 0.9434999999999998 5.84700439453125 0.9014999999999999 L 5.89200439453125 0.6494999999999999 Q 5.87550439453125 0.6119999999999999 5.81400439453125 0.6119999999999999 Q 5.69850439453125 0.6119999999999999 5.67900439453125 0.7229999999999999 L 5.65950439453125 0.8354999999999999 M 7.030489013671875 0.5699999999999998 Q 7.030489013671875 0.6209999999999999 7.013239013671875 0.6689999999999998 Q 6.995989013671875 0.7169999999999999 6.979489013671875 0.7394999999999998 L 6.962989013671875 0.7604999999999998 L 6.736489013671875 0.7604999999999998 Q 6.773989013671875 0.7259999999999998 6.773989013671875 0.6749999999999998 Q 6.773989013671875 0.6479999999999999 6.756739013671875 0.6307499999999998 Q 6.739489013671875 0.6134999999999998 6.709489013671875 0.6134999999999998 Q 6.658489013671875 0.6134999999999998 6.620989013671875 0.6644999999999999 L 6.536989013671875 1.1384999999999998 L 6.281989013671875 1.1384999999999998 L 6.409489013671875 0.4169999999999998 L 6.646489013671875 0.4169999999999998 L 6.628489013671875 0.5174999999999998 Q 6.713989013671875 0.3959999999999998 6.835489013671875 0.3959999999999998 Q 6.932989013671875 0.3959999999999998 6.981739013671875 0.4424999999999998 Q 7.030489013671875 0.4889999999999999 7.030489013671875 0.5699999999999998 M 7.82395458984375 0.5729999999999998 Q 7.82395458984375 0.6224999999999998 7.79395458984375 0.6644999999999999 L 7.54795458984375 0.6644999999999999 Q 7.55995458984375 0.6554999999999999 7.55995458984375 0.6344999999999998 Q 7.55995458984375 0.6134999999999998 7.53595458984375 0.6007499999999998 Q 7.51195458984375 0.5879999999999999 7.47445458984375 0.5879999999999999 Q 7.36195458984375 0.5879999999999999 7.36195458984375 0.6569999999999998 Q 7.36195458984375 0.6839999999999998 7.4039545898437495 0.6959999999999998 Q 7.44595458984375 0.7079999999999999 7.50595458984375 0.7154999999999998 Q 7.56595458984375 0.7229999999999999 7.62595458984375 0.7372499999999998 Q 7.68595458984375 0.7514999999999998 7.72795458984375 0.7934999999999999 Q 7.76995458984375 0.8354999999999999 7.76995458984375 0.9059999999999998 Q 7.76995458984375 1.0304999999999997 7.67020458984375 1.0949999999999998 Q 7.57045458984375 1.1594999999999998 7.37995458984375 1.1594999999999998 Q 7.18945458984375 1.1594999999999998 7.11295458984375 1.0979999999999999 Q 7.05295458984375 1.0499999999999998 7.05295458984375 0.9659999999999999 Q 7.05295458984375 0.9419999999999998 7.05745458984375 0.9164999999999999 L 7.30795458984375 0.9134999999999999 Q 7.30495458984375 0.9344999999999999 7.33270458984375 0.9502499999999998 Q 7.36045458984375 0.9659999999999999 7.41445458984375 0.9659999999999999 Q 7.46845458984375 0.9659999999999999 7.49245458984375 0.9547499999999999 Q 7.51645458984375 0.9434999999999998 7.51645458984375 0.9119999999999998 Q 7.51645458984375 0.8909999999999998 7.47445458984375 0.8827499999999998 Q 7.43245458984375 0.8744999999999998 7.37170458984375 0.8684999999999998 Q 7.31095458984375 0.8624999999999998 7.25020458984375 0.8489999999999999 Q 7.18945458984375 0.8354999999999999 7.14745458984375 0.7919999999999998 Q 7.10545458984375 0.7484999999999998 7.10545458984375 0.6779999999999998 Q 7.10545458984375 0.5414999999999999 7.21120458984375 0.46799999999999986 Q 7.31695458984375 0.39449999999999985 7.51645458984375 0.39449999999999985 Q 7.82395458984375 0.39449999999999985 7.82395458984375 0.5729999999999998 M 8.600971435546874 0.9074999999999999 Q 8.600971435546874 0.9464999999999999 8.640721435546874 0.9464999999999999 Q 8.680471435546876 0.9464999999999999 8.707471435546875 0.9314999999999998 L 8.699971435546875 1.1009999999999998 Q 8.627971435546876 1.1594999999999998 8.537971435546876 1.1594999999999998 Q 8.372971435546875 1.1594999999999998 8.354971435546876 1.0394999999999999 Q 8.279971435546875 1.1594999999999998 8.134471435546875 1.1594999999999998 Q 7.888471435546875 1.1594999999999998 7.888471435546875 0.9479999999999998 Q 7.888471435546875 0.9119999999999998 7.895971435546875 0.8684999999999998 L 7.927471435546875 0.6929999999999998 Q 7.951471435546875 0.5579999999999998 8.037721435546874 0.4777499999999998 Q 8.123971435546874 0.39749999999999985 8.262721435546876 0.39749999999999985 Q 8.401471435546876 0.39749999999999985 8.450971435546876 0.46199999999999986 L 8.458471435546874 0.4169999999999998 L 8.686471435546874 0.4169999999999998 L 8.602471435546875 0.8894999999999998 Q 8.600971435546874 0.8984999999999999 8.600971435546874 0.9074999999999999 M 8.156971435546875 0.8354999999999999 Q 8.153971435546875 0.8489999999999999 8.153971435546875 0.8729999999999998 Q 8.153971435546875 0.8969999999999998 8.176471435546874 0.9202499999999998 Q 8.198971435546875 0.9434999999999998 8.252221435546875 0.9434999999999998 Q 8.305471435546876 0.9434999999999998 8.344471435546875 0.9014999999999999 L 8.389471435546875 0.6494999999999999 Q 8.372971435546875 0.6119999999999999 8.311471435546874 0.6119999999999999 Q 8.195971435546875 0.6119999999999999 8.176471435546874 0.7229999999999999 L 8.156971435546875 0.8354999999999999 M 9.2834560546875 0.6779999999999998 Q 9.2834560546875 0.6134999999999998 9.2212060546875 0.6134999999999998 Q 9.1589560546875 0.6134999999999998 9.1184560546875 0.6599999999999998 L 9.0344560546875 1.1384999999999998 L 8.7794560546875 1.1384999999999998 L 8.9069560546875 0.4169999999999998 L 9.1439560546875 0.4169999999999998 L 9.1274560546875 0.5054999999999998 Q 9.2159560546875 0.3959999999999998 9.3509560546875 0.3959999999999998 Q 9.4859560546875 0.3959999999999998 9.5264560546875 0.46199999999999986 Q 9.5519560546875 0.5039999999999998 9.5519560546875 0.5579999999999998 Q 9.5519560546875 0.6119999999999999 9.5444560546875 0.6584999999999999 L 9.5039560546875 0.8894999999999998 Q 9.5024560546875 0.8984999999999999 9.5024560546875 0.9059999999999998 Q 9.5024560546875 0.9464999999999999 9.5474560546875 0.9464999999999999 Q 9.5819560546875 0.9464999999999999 9.6089560546875 0.9314999999999998 L 9.6014560546875 1.1009999999999998 Q 9.5309560546875 1.1594999999999998 9.4409560546875 1.1594999999999998 Q 9.2369560546875 1.1594999999999998 9.2369560546875 0.9884999999999998 Q 9.2369560546875 0.9584999999999999 9.2429560546875 0.9239999999999998 L 9.2789560546875 0.7244999999999998 Q 9.2834560546875 0.6974999999999998 9.2834560546875 0.6779999999999998 M 10.40098974609375 0.9074999999999999 Q 10.40098974609375 0.9464999999999999 10.44073974609375 0.9464999999999999 Q 10.48048974609375 0.9464999999999999 10.50748974609375 0.9314999999999998 L 10.49998974609375 1.1009999999999998 Q 10.42798974609375 1.1594999999999998 10.33798974609375 1.1594999999999998 Q 10.17298974609375 1.1594999999999998 10.15498974609375 1.0394999999999999 Q 10.07998974609375 1.1594999999999998 9.93448974609375 1.1594999999999998 Q 9.68848974609375 1.1594999999999998 9.68848974609375 0.9479999999999998 Q 9.68848974609375 0.9119999999999998 9.69598974609375 0.8684999999999998 L 9.72748974609375 0.6929999999999998 Q 9.75148974609375 0.5579999999999998 9.83773974609375 0.4777499999999998 Q 9.92398974609375 0.39749999999999985 10.06273974609375 0.39749999999999985 Q 10.20148974609375 0.39749999999999985 10.250989746093751 0.46199999999999986 L 10.25848974609375 0.4169999999999998 L 10.48648974609375 0.4169999999999998 L 10.40248974609375 0.8894999999999998 Q 10.40098974609375 0.8984999999999999 10.40098974609375 0.9074999999999999 M 9.95698974609375 0.8354999999999999 Q 9.95398974609375 0.8489999999999999 9.95398974609375 0.8729999999999998 Q 9.95398974609375 0.8969999999999998 9.97648974609375 0.9202499999999998 Q 9.99898974609375 0.9434999999999998 10.05223974609375 0.9434999999999998 Q 10.10548974609375 0.9434999999999998 10.14448974609375 0.9014999999999999 L 10.18948974609375 0.6494999999999999 Q 10.17298974609375 0.6119999999999999 10.11148974609375 0.6119999999999999 Q 9.99598974609375 0.6119999999999999 9.97648974609375 0.7229999999999999 L 9.95698974609375 0.8354999999999999" fill="#ffffff" fill-rule="nonzero"></path></g><g><path d=" M 0.06525 2.0555437499999996 L 0.06525 1.5181687499999996 L 0.236625 1.5181687499999996 Q 0.286125 1.5181687499999996 0.3219375 1.5279187499999995 Q 0.35775 1.5376687499999995 0.3808125 1.5556687499999995 Q 0.403875 1.5736687499999995 0.4149375 1.5997312499999996 Q 0.426 1.6257937499999995 0.426 1.6584187499999996 Q 0.426 1.6782937499999995 0.41981250000000003 1.6966687499999995 Q 0.413625 1.7150437499999995 0.4010625 1.7307937499999997 Q 0.3885 1.7465437499999996 0.3695625 1.7589187499999994 Q 0.350625 1.7712937499999994 0.325125 1.7791687499999995 Q 0.384 1.7907937499999995 0.41400000000000003 1.8215437499999996 Q 0.444 1.8522937499999996 0.444 1.9025437499999995 Q 0.444 1.9366687499999995 0.43143750000000003 1.9647937499999997 Q 0.418875 1.9929187499999996 0.3946875 2.0131687499999997 Q 0.3705 2.0334187499999996 0.3354375 2.0444812499999996 Q 0.300375 2.0555437499999996 0.255375 2.0555437499999996 L 0.06525 2.0555437499999996 M 0.138 1.8106687499999996 L 0.138 1.9977937499999996 L 0.25425000000000003 1.9977937499999996 Q 0.285375 1.9977937499999996 0.3076875 1.9906687499999995 Q 0.33 1.9835437499999995 0.3444375 1.9706062499999994 Q 0.358875 1.9576687499999996 0.36562500000000003 1.9398562499999996 Q 0.372375 1.9220437499999996 0.372375 1.9006687499999995 Q 0.372375 1.8590437499999997 0.3429375 1.8348562499999996 Q 0.3135 1.8106687499999996 0.253875 1.8106687499999996 L 0.138 1.8106687499999996 M 0.138 1.7589187499999994 L 0.234 1.7589187499999994 Q 0.26475 1.7589187499999994 0.28725 1.7521687499999996 Q 0.30975 1.7454187499999996 0.32456250000000003 1.7334187499999996 Q 0.339375 1.7214187499999996 0.34650000000000003 1.7043562499999996 Q 0.353625 1.6872937499999996 0.353625 1.6670437499999995 Q 0.353625 1.6197937499999995 0.325125 1.5976687499999995 Q 0.296625 1.5755437499999996 0.236625 1.5755437499999996 L 0.138 1.5755437499999996 L 0.138 1.7589187499999994 M 0.6909169921875 1.6696687499999996 Q 0.7250419921875 1.6696687499999996 0.7539169921875 1.6811062499999996 Q 0.7827919921875 1.6925437499999996 0.8037919921875001 1.7141062499999995 Q 0.8247919921875 1.7356687499999994 0.8366044921875 1.7673562499999995 Q 0.8484169921875 1.7990437499999996 0.8484169921875 1.8395437499999996 Q 0.8484169921875 1.8552937499999995 0.8450419921875001 1.8605437499999995 Q 0.8416669921875 1.8657937499999995 0.8322919921875 1.8657937499999995 L 0.5795419921875 1.8657937499999995 Q 0.5802919921875 1.9017937499999995 0.5892919921875001 1.9284187499999996 Q 0.5982919921875001 1.9550437499999995 0.6140419921875 1.9728562499999995 Q 0.6297919921875 1.9906687499999995 0.6515419921875001 1.9994812499999997 Q 0.6732919921875 2.0082937499999995 0.7002919921875 2.0082937499999995 Q 0.7254169921875 2.0082937499999995 0.7436044921875 2.0024812499999998 Q 0.7617919921875 1.9966687499999995 0.7749169921875001 1.9899187499999995 Q 0.7880419921875 1.9831687499999995 0.7968544921875 1.9773562499999995 Q 0.8056669921875 1.9715437499999995 0.8120419921875 1.9715437499999995 Q 0.8202919921875 1.9715437499999995 0.8247919921875 1.9779187499999995 L 0.8435419921875 2.0022937499999998 Q 0.8311669921875 2.0172937499999994 0.8139169921875 2.0283562499999994 Q 0.7966669921875 2.0394187499999994 0.7769794921875 2.0465437499999997 Q 0.7572919921875001 2.0536687499999995 0.7362919921875 2.0572312499999996 Q 0.7152919921875001 2.0607937499999998 0.6946669921875 2.0607937499999998 Q 0.6552919921875 2.0607937499999998 0.6221044921875001 2.0474812499999997 Q 0.5889169921875 2.0341687499999996 0.5647294921875 2.0084812499999996 Q 0.5405419921875 1.9827937499999995 0.5270419921875 1.9449187499999996 Q 0.5135419921875001 1.9070437499999995 0.5135419921875001 1.8579187499999996 Q 0.5135419921875001 1.8181687499999994 0.5257294921875 1.7836687499999995 Q 0.5379169921875 1.7491687499999995 0.5607919921875 1.7238562499999994 Q 0.5836669921875001 1.6985437499999996 0.6166669921875 1.6841062499999995 Q 0.6496669921875 1.6696687499999996 0.6909169921875 1.6696687499999996 M 0.6924169921875001 1.7187937499999997 Q 0.6440419921875 1.7187937499999997 0.6162919921875001 1.7467312499999996 Q 0.5885419921875 1.7746687499999996 0.5817919921875 1.8241687499999997 L 0.7884169921875 1.8241687499999997 Q 0.7884169921875 1.8009187499999997 0.7820419921875 1.7816062499999996 Q 0.7756669921875 1.7622937499999995 0.7632919921875001 1.7482312499999995 Q 0.7509169921875001 1.7341687499999996 0.7331044921875001 1.7264812499999995 Q 0.7152919921875001 1.7187937499999997 0.6924169921875001 1.7187937499999997 M 1.1515946044921876 1.7382937499999995 Q 1.1470946044921875 1.7465437499999996 1.1377196044921876 1.7465437499999996 Q 1.1320946044921876 1.7465437499999996 1.1249696044921875 1.7424187499999997 Q 1.1178446044921875 1.7382937499999995 1.1075321044921875 1.7332312499999996 Q 1.0972196044921876 1.7281687499999996 1.0829696044921875 1.7238562499999994 Q 1.0687196044921876 1.7195437499999995 1.0492196044921875 1.7195437499999995 Q 1.0323446044921876 1.7195437499999995 1.0188446044921875 1.7238562499999994 Q 1.0053446044921874 1.7281687499999996 0.9957821044921875 1.7356687499999994 Q 0.9862196044921876 1.7431687499999995 0.9811571044921875 1.7531062499999996 Q 0.9760946044921875 1.7630437499999996 0.9760946044921875 1.7746687499999996 Q 0.9760946044921875 1.7892937499999997 0.9845321044921875 1.7990437499999996 Q 0.9929696044921875 1.8087937499999995 1.0068446044921875 1.8159187499999996 Q 1.0207196044921876 1.8230437499999996 1.0383446044921876 1.8284812499999996 Q 1.0559696044921876 1.8339187499999996 1.0745321044921876 1.8401062499999996 Q 1.0930946044921876 1.8462937499999996 1.1107196044921874 1.8537937499999995 Q 1.1283446044921877 1.8612937499999995 1.1422196044921875 1.8725437499999995 Q 1.1560946044921876 1.8837937499999995 1.1645321044921875 1.9001062499999994 Q 1.1729696044921876 1.9164187499999996 1.1729696044921876 1.9392937499999996 Q 1.1729696044921876 1.9655437499999995 1.1635946044921877 1.9878562499999997 Q 1.1542196044921875 2.0101687499999996 1.1358446044921875 2.0264812499999993 Q 1.1174696044921875 2.0427937499999995 1.0908446044921876 2.0521687499999994 Q 1.0642196044921874 2.0615437499999993 1.0293446044921875 2.0615437499999993 Q 0.9895946044921875 2.0615437499999993 0.9573446044921875 2.0486062499999997 Q 0.9250946044921875 2.0356687499999997 0.9025946044921875 2.0154187499999994 L 0.9183446044921876 1.9899187499999995 Q 0.9213446044921876 1.9850437499999996 0.9254696044921875 1.9824187499999995 Q 0.9295946044921876 1.9797937499999996 0.9363446044921876 1.9797937499999996 Q 0.9430946044921875 1.9797937499999996 0.9505946044921876 1.9850437499999996 Q 0.9580946044921875 1.9902937499999995 0.9687821044921876 1.9966687499999995 Q 0.9794696044921876 2.0030437499999993 0.9946571044921876 2.0082937499999995 Q 1.0098446044921876 2.0135437499999997 1.0327196044921876 2.0135437499999997 Q 1.0522196044921874 2.0135437499999997 1.0668446044921875 2.0084812499999996 Q 1.0814696044921877 2.0034187499999994 1.0912196044921876 1.9947937499999995 Q 1.1009696044921875 1.9861687499999996 1.1056571044921875 1.9749187499999996 Q 1.1103446044921876 1.9636687499999996 1.1103446044921876 1.9509187499999996 Q 1.1103446044921876 1.9351687499999997 1.1019071044921875 1.9248562499999995 Q 1.0934696044921877 1.9145437499999995 1.0795946044921876 1.9072312499999995 Q 1.0657196044921875 1.8999187499999994 1.0479071044921875 1.8944812499999997 Q 1.0300946044921875 1.8890437499999995 1.0115321044921877 1.8830437499999995 Q 0.9929696044921875 1.8770437499999995 0.9751571044921875 1.8693562499999996 Q 0.9573446044921875 1.8616687499999995 0.9434696044921875 1.8500437499999995 Q 0.9295946044921876 1.8384187499999995 0.9211571044921876 1.8213562499999996 Q 0.9127196044921876 1.8042937499999996 0.9127196044921876 1.7799187499999995 Q 0.9127196044921876 1.7581687499999996 0.9217196044921876 1.7381062499999995 Q 0.9307196044921875 1.7180437499999996 0.9479696044921876 1.7028562499999995 Q 0.9652196044921876 1.6876687499999996 0.9903446044921875 1.6786687499999995 Q 1.0154696044921876 1.6696687499999996 1.0477196044921875 1.6696687499999996 Q 1.0852196044921876 1.6696687499999996 1.1150321044921876 1.6814812499999996 Q 1.1448446044921876 1.6932937499999996 1.1665946044921875 1.7139187499999995 L 1.1515946044921876 1.7382937499999995 M 1.3752978515625 2.0615437499999993 Q 1.3302978515625001 2.0615437499999993 1.3061103515625 2.0364187499999997 Q 1.2819228515625 2.0112937499999997 1.2819228515625 1.9640437499999996 L 1.2819228515625 1.7315437499999995 L 1.2361728515625001 1.7315437499999995 Q 1.2301728515625001 1.7315437499999995 1.2260478515625 1.7279812499999996 Q 1.2219228515625 1.7244187499999994 1.2219228515625 1.7169187499999996 L 1.2219228515625 1.6902937499999995 L 1.2841728515625002 1.6824187499999996 L 1.2995478515625 1.5650437499999996 Q 1.3002978515625 1.5594187499999996 1.3044228515625 1.5558562499999995 Q 1.3085478515625 1.5522937499999996 1.3149228515625 1.5522937499999996 L 1.3486728515625002 1.5522937499999996 L 1.3486728515625002 1.6831687499999997 L 1.4574228515625 1.6831687499999997 L 1.4574228515625 1.7315437499999995 L 1.3486728515625002 1.7315437499999995 L 1.3486728515625002 1.9595437499999995 Q 1.3486728515625002 1.9835437499999995 1.3602978515625002 1.9951687499999995 Q 1.3719228515625002 2.0067937499999995 1.3902978515625 2.0067937499999995 Q 1.4007978515625001 2.0067937499999995 1.4084853515625 2.0039812499999994 Q 1.4161728515625 2.0011687499999997 1.4217978515625 1.9977937499999996 Q 1.4274228515625 1.9944187499999995 1.4313603515625002 1.9916062499999996 Q 1.4352978515625001 1.9887937499999995 1.4382978515625 1.9887937499999995 Q 1.4435478515625 1.9887937499999995 1.4476728515625001 1.9951687499999995 L 1.4671728515625 2.0270437499999994 Q 1.4499228515625 2.0431687499999995 1.4255478515625 2.0523562499999994 Q 1.4011728515625002 2.0615437499999993 1.3752978515625 2.0615437499999993 M 1.6857821044921877 2.0555437499999996 L 1.6857821044921877 1.5031687499999995 L 1.7525321044921875 1.5031687499999995 L 1.7525321044921875 1.7266687499999995 Q 1.7769071044921876 1.7007937499999994 1.8065321044921876 1.6852312499999995 Q 1.8361571044921876 1.6696687499999996 1.8747821044921875 1.6696687499999996 Q 1.9059071044921876 1.6696687499999996 1.9297196044921876 1.6799812499999995 Q 1.9535321044921876 1.6902937499999995 1.9694696044921876 1.7092312499999995 Q 1.9854071044921877 1.7281687499999996 1.9936571044921876 1.7547937499999995 Q 2.0019071044921875 1.7814187499999996 2.0019071044921875 1.8136687499999995 L 2.0019071044921875 2.0555437499999996 L 1.9351571044921876 2.0555437499999996 L 1.9351571044921876 1.8136687499999995 Q 1.9351571044921876 1.7705437499999994 1.9154696044921877 1.7467312499999996 Q 1.8957821044921876 1.7229187499999996 1.8552821044921877 1.7229187499999996 Q 1.8256571044921877 1.7229187499999996 1.7999696044921876 1.7371687499999995 Q 1.7742821044921877 1.7514187499999996 1.7525321044921875 1.7757937499999996 L 1.7525321044921875 2.0555437499999996 L 1.6857821044921877 2.0555437499999996 M 2.257071533203125 1.6696687499999996 Q 2.2986965332031253 1.6696687499999996 2.332259033203125 1.6835437499999997 Q 2.365821533203125 1.6974187499999995 2.389259033203125 1.7229187499999996 Q 2.412696533203125 1.7484187499999995 2.425259033203125 1.7846062499999995 Q 2.4378215332031252 1.8207937499999995 2.4378215332031252 1.8654187499999995 Q 2.4378215332031252 1.9104187499999996 2.425259033203125 1.9464187499999996 Q 2.412696533203125 1.9824187499999995 2.389259033203125 2.0079187499999995 Q 2.365821533203125 2.0334187499999996 2.332259033203125 2.0471062499999997 Q 2.2986965332031253 2.0607937499999998 2.257071533203125 2.0607937499999998 Q 2.2154465332031252 2.0607937499999998 2.1818840332031253 2.0471062499999997 Q 2.1483215332031254 2.0334187499999996 2.1246965332031253 2.0079187499999995 Q 2.1010715332031253 1.9824187499999995 2.0883215332031253 1.9464187499999996 Q 2.0755715332031253 1.9104187499999996 2.0755715332031253 1.8654187499999995 Q 2.0755715332031253 1.8207937499999995 2.0883215332031253 1.7846062499999995 Q 2.1010715332031253 1.7484187499999995 2.1246965332031253 1.7229187499999996 Q 2.1483215332031254 1.6974187499999995 2.1818840332031253 1.6835437499999997 Q 2.2154465332031252 1.6696687499999996 2.257071533203125 1.6696687499999996 M 2.257071533203125 2.0086687499999996 Q 2.313321533203125 2.0086687499999996 2.341071533203125 1.9709812499999995 Q 2.3688215332031253 1.9332937499999996 2.3688215332031253 1.8657937499999995 Q 2.3688215332031253 1.7979187499999996 2.341071533203125 1.7600437499999995 Q 2.313321533203125 1.7221687499999996 2.257071533203125 1.7221687499999996 Q 2.2285715332031253 1.7221687499999996 2.207571533203125 1.7319187499999995 Q 2.186571533203125 1.7416687499999997 2.172509033203125 1.7600437499999995 Q 2.1584465332031253 1.7784187499999995 2.151509033203125 1.8052312499999996 Q 2.144571533203125 1.8320437499999995 2.144571533203125 1.8657937499999995 Q 2.144571533203125 1.8995437499999996 2.151509033203125 1.9261687499999995 Q 2.1584465332031253 1.9527937499999997 2.172509033203125 1.9709812499999995 Q 2.186571533203125 1.9891687499999995 2.207571533203125 1.9989187499999996 Q 2.2285715332031253 2.0086687499999996 2.257071533203125 2.0086687499999996 M 2.635985961914063 2.0615437499999993 Q 2.5909859619140625 2.0615437499999993 2.5667984619140625 2.0364187499999997 Q 2.5426109619140624 2.0112937499999997 2.5426109619140624 1.9640437499999996 L 2.5426109619140624 1.7315437499999995 L 2.4968609619140625 1.7315437499999995 Q 2.4908609619140627 1.7315437499999995 2.4867359619140625 1.7279812499999996 Q 2.482610961914063 1.7244187499999994 2.482610961914063 1.7169187499999996 L 2.482610961914063 1.6902937499999995 L 2.5448609619140625 1.6824187499999996 L 2.5602359619140627 1.5650437499999996 Q 2.5609859619140627 1.5594187499999996 2.565110961914063 1.5558562499999995 Q 2.5692359619140626 1.5522937499999996 2.575610961914063 1.5522937499999996 L 2.6093609619140627 1.5522937499999996 L 2.6093609619140627 1.6831687499999997 L 2.7181109619140624 1.6831687499999997 L 2.7181109619140624 1.7315437499999995 L 2.6093609619140627 1.7315437499999995 L 2.6093609619140627 1.9595437499999995 Q 2.6093609619140627 1.9835437499999995 2.6209859619140627 1.9951687499999995 Q 2.6326109619140627 2.0067937499999995 2.6509859619140625 2.0067937499999995 Q 2.6614859619140625 2.0067937499999995 2.669173461914063 2.0039812499999994 Q 2.6768609619140626 2.0011687499999997 2.682485961914063 1.9977937499999996 Q 2.6881109619140626 1.9944187499999995 2.6920484619140628 1.9916062499999996 Q 2.6959859619140625 1.9887937499999995 2.6989859619140626 1.9887937499999995 Q 2.704235961914063 1.9887937499999995 2.7083609619140625 1.9951687499999995 L 2.727860961914063 2.0270437499999994 Q 2.7106109619140626 2.0431687499999995 2.6862359619140626 2.0523562499999994 Q 2.6618609619140625 2.0615437499999993 2.635985961914063 2.0615437499999993 M 2.951537841796875 1.6696687499999996 Q 2.9856628417968754 1.6696687499999996 3.014537841796875 1.6811062499999996 Q 3.0434128417968753 1.6925437499999996 3.0644128417968752 1.7141062499999995 Q 3.085412841796875 1.7356687499999994 3.097225341796875 1.7673562499999995 Q 3.109037841796875 1.7990437499999996 3.109037841796875 1.8395437499999996 Q 3.109037841796875 1.8552937499999995 3.105662841796875 1.8605437499999995 Q 3.1022878417968753 1.8657937499999995 3.092912841796875 1.8657937499999995 L 2.840162841796875 1.8657937499999995 Q 2.840912841796875 1.9017937499999995 2.849912841796875 1.9284187499999996 Q 2.858912841796875 1.9550437499999995 2.874662841796875 1.9728562499999995 Q 2.8904128417968753 1.9906687499999995 2.9121628417968752 1.9994812499999997 Q 2.933912841796875 2.0082937499999995 2.9609128417968753 2.0082937499999995 Q 2.9860378417968754 2.0082937499999995 3.004225341796875 2.0024812499999998 Q 3.022412841796875 1.9966687499999995 3.035537841796875 1.9899187499999995 Q 3.048662841796875 1.9831687499999995 3.0574753417968754 1.9773562499999995 Q 3.0662878417968753 1.9715437499999995 3.072662841796875 1.9715437499999995 Q 3.0809128417968754 1.9715437499999995 3.085412841796875 1.9779187499999995 L 3.1041628417968754 2.0022937499999998 Q 3.091787841796875 2.0172937499999994 3.074537841796875 2.0283562499999994 Q 3.0572878417968754 2.0394187499999994 3.037600341796875 2.0465437499999997 Q 3.0179128417968752 2.0536687499999995 2.9969128417968753 2.0572312499999996 Q 2.975912841796875 2.0607937499999998 2.955287841796875 2.0607937499999998 Q 2.9159128417968754 2.0607937499999998 2.882725341796875 2.0474812499999997 Q 2.849537841796875 2.0341687499999996 2.825350341796875 2.0084812499999996 Q 2.801162841796875 1.9827937499999995 2.787662841796875 1.9449187499999996 Q 2.7741628417968753 1.9070437499999995 2.7741628417968753 1.8579187499999996 Q 2.7741628417968753 1.8181687499999994 2.7863503417968754 1.7836687499999995 Q 2.7985378417968754 1.7491687499999995 2.8214128417968753 1.7238562499999994 Q 2.8442878417968753 1.6985437499999996 2.8772878417968752 1.6841062499999995 Q 2.910287841796875 1.6696687499999996 2.951537841796875 1.6696687499999996 M 2.953037841796875 1.7187937499999997 Q 2.904662841796875 1.7187937499999997 2.8769128417968752 1.7467312499999996 Q 2.849162841796875 1.7746687499999996 2.8424128417968753 1.8241687499999997 L 3.049037841796875 1.8241687499999997 Q 3.049037841796875 1.8009187499999997 3.0426628417968753 1.7816062499999996 Q 3.036287841796875 1.7622937499999995 3.023912841796875 1.7482312499999995 Q 3.011537841796875 1.7341687499999996 2.993725341796875 1.7264812499999995 Q 2.975912841796875 1.7187937499999997 2.953037841796875 1.7187937499999997 M 3.2689654541015627 1.5031687499999995 L 3.2689654541015627 2.0555437499999996 L 3.202215454101563 2.0555437499999996 L 3.202215454101563 1.5031687499999995 L 3.2689654541015627 1.5031687499999995 M 3.6068214111328127 1.6756687499999996 L 3.6068214111328127 2.0555437499999996 L 3.540071411132813 2.0555437499999996 L 3.540071411132813 1.6756687499999996 L 3.6068214111328127 1.6756687499999996 M 3.621821411132813 1.5564187499999995 Q 3.621821411132813 1.5661687499999997 3.6178839111328127 1.5746062499999995 Q 3.6139464111328126 1.5830437499999994 3.6073839111328128 1.5896062499999997 Q 3.600821411132813 1.5961687499999995 3.5921964111328126 1.5999187499999996 Q 3.5835714111328127 1.6036687499999995 3.573821411132813 1.6036687499999995 Q 3.564071411132813 1.6036687499999995 3.5556339111328126 1.5999187499999996 Q 3.5471964111328127 1.5961687499999995 3.540633911132813 1.5896062499999997 Q 3.5340714111328126 1.5830437499999994 3.530321411132813 1.5746062499999995 Q 3.526571411132813 1.5661687499999997 3.526571411132813 1.5564187499999995 Q 3.526571411132813 1.5466687499999996 3.530321411132813 1.5378562499999995 Q 3.5340714111328126 1.5290437499999996 3.540633911132813 1.5224812499999996 Q 3.5471964111328127 1.5159187499999995 3.5556339111328126 1.5121687499999994 Q 3.564071411132813 1.5084187499999997 3.573821411132813 1.5084187499999997 Q 3.5835714111328127 1.5084187499999997 3.5921964111328126 1.5121687499999994 Q 3.600821411132813 1.5159187499999995 3.6073839111328128 1.5224812499999996 Q 3.6139464111328126 1.5290437499999996 3.6178839111328127 1.5378562499999995 Q 3.621821411132813 1.5466687499999996 3.621821411132813 1.5564187499999995 M 3.7251199951171876 2.0555437499999996 L 3.7251199951171876 1.6756687499999996 L 3.764869995117188 1.6756687499999996 Q 3.779119995117188 1.6756687499999996 3.7828699951171876 1.6895437499999995 L 3.7881199951171878 1.7307937499999997 Q 3.812869995117188 1.7034187499999995 3.8434324951171877 1.6865437499999996 Q 3.873994995117188 1.6696687499999996 3.9141199951171877 1.6696687499999996 Q 3.9452449951171875 1.6696687499999996 3.9690574951171875 1.6799812499999995 Q 3.9928699951171875 1.6902937499999995 4.008807495117188 1.7092312499999995 Q 4.024744995117188 1.7281687499999996 4.032994995117188 1.7547937499999995 Q 4.041244995117188 1.7814187499999996 4.041244995117188 1.8136687499999995 L 4.041244995117188 2.0555437499999996 L 3.9744949951171877 2.0555437499999996 L 3.9744949951171877 1.8136687499999995 Q 3.9744949951171877 1.7705437499999994 3.954807495117188 1.7467312499999996 Q 3.9351199951171876 1.7229187499999996 3.894619995117188 1.7229187499999996 Q 3.8649949951171876 1.7229187499999996 3.839307495117188 1.7371687499999995 Q 3.813619995117188 1.7514187499999996 3.791869995117188 1.7757937499999996 L 3.791869995117188 2.0555437499999996 L 3.7251199951171876 2.0555437499999996 M 4.287966796875001 2.0555437499999996 L 4.287966796875001 1.6756687499999996 L 4.327716796875 1.6756687499999996 Q 4.341966796875 1.6756687499999996 4.345716796875 1.6895437499999995 L 4.350966796875 1.7307937499999997 Q 4.375716796875 1.7034187499999995 4.406279296875001 1.6865437499999996 Q 4.436841796875 1.6696687499999996 4.476966796875001 1.6696687499999996 Q 4.508091796875 1.6696687499999996 4.531904296875 1.6799812499999995 Q 4.555716796875 1.6902937499999995 4.571654296875001 1.7092312499999995 Q 4.587591796875 1.7281687499999996 4.595841796875001 1.7547937499999995 Q 4.604091796875 1.7814187499999996 4.604091796875 1.8136687499999995 L 4.604091796875 2.0555437499999996 L 4.537341796875 2.0555437499999996 L 4.537341796875 1.8136687499999995 Q 4.537341796875 1.7705437499999994 4.517654296875 1.7467312499999996 Q 4.497966796875001 1.7229187499999996 4.457466796875 1.7229187499999996 Q 4.427841796875001 1.7229187499999996 4.4021542968750005 1.7371687499999995 Q 4.376466796875 1.7514187499999996 4.3547167968750005 1.7757937499999996 L 4.3547167968750005 2.0555437499999996 L 4.287966796875001 2.0555437499999996 M 4.855881225585938 1.6696687499999996 Q 4.890006225585938 1.6696687499999996 4.918881225585938 1.6811062499999996 Q 4.9477562255859375 1.6925437499999996 4.968756225585937 1.7141062499999995 Q 4.989756225585938 1.7356687499999994 5.001568725585938 1.7673562499999995 Q 5.013381225585938 1.7990437499999996 5.013381225585938 1.8395437499999996 Q 5.013381225585938 1.8552937499999995 5.010006225585938 1.8605437499999995 Q 5.006631225585938 1.8657937499999995 4.997256225585938 1.8657937499999995 L 4.744506225585938 1.8657937499999995 Q 4.745256225585938 1.9017937499999995 4.754256225585938 1.9284187499999996 Q 4.763256225585938 1.9550437499999995 4.779006225585938 1.9728562499999995 Q 4.794756225585938 1.9906687499999995 4.816506225585938 1.9994812499999997 Q 4.838256225585938 2.0082937499999995 4.865256225585938 2.0082937499999995 Q 4.890381225585938 2.0082937499999995 4.908568725585938 2.0024812499999998 Q 4.926756225585938 1.9966687499999995 4.939881225585938 1.9899187499999995 Q 4.953006225585938 1.9831687499999995 4.961818725585938 1.9773562499999995 Q 4.9706312255859375 1.9715437499999995 4.977006225585938 1.9715437499999995 Q 4.985256225585938 1.9715437499999995 4.989756225585938 1.9779187499999995 L 5.008506225585938 2.0022937499999998 Q 4.996131225585938 2.0172937499999994 4.978881225585938 2.0283562499999994 Q 4.961631225585938 2.0394187499999994 4.941943725585938 2.0465437499999997 Q 4.9222562255859375 2.0536687499999995 4.9012562255859375 2.0572312499999996 Q 4.880256225585938 2.0607937499999998 4.859631225585938 2.0607937499999998 Q 4.820256225585938 2.0607937499999998 4.787068725585938 2.0474812499999997 Q 4.753881225585938 2.0341687499999996 4.729693725585938 2.0084812499999996 Q 4.705506225585938 1.9827937499999995 4.692006225585938 1.9449187499999996 Q 4.678506225585938 1.9070437499999995 4.678506225585938 1.8579187499999996 Q 4.678506225585938 1.8181687499999994 4.690693725585938 1.7836687499999995 Q 4.702881225585938 1.7491687499999995 4.725756225585938 1.7238562499999994 Q 4.748631225585938 1.6985437499999996 4.7816312255859375 1.6841062499999995 Q 4.814631225585938 1.6696687499999996 4.855881225585938 1.6696687499999996 M 4.857381225585938 1.7187937499999997 Q 4.809006225585938 1.7187937499999997 4.781256225585937 1.7467312499999996 Q 4.753506225585938 1.7746687499999996 4.746756225585938 1.8241687499999997 L 4.953381225585938 1.8241687499999997 Q 4.953381225585938 1.8009187499999997 4.9470062255859375 1.7816062499999996 Q 4.940631225585938 1.7622937499999995 4.928256225585938 1.7482312499999995 Q 4.915881225585938 1.7341687499999996 4.898068725585937 1.7264812499999995 Q 4.880256225585938 1.7187937499999997 4.857381225585938 1.7187937499999997 M 5.099058837890626 2.1841687499999995 L 5.099058837890626 1.6756687499999996 L 5.138808837890625 1.6756687499999996 Q 5.153058837890625 1.6756687499999996 5.156808837890625 1.6895437499999995 L 5.162433837890625 1.7345437499999996 Q 5.186808837890625 1.7049187499999996 5.218121337890626 1.6869187499999996 Q 5.249433837890625 1.6689187499999996 5.290308837890626 1.6689187499999996 Q 5.322933837890625 1.6689187499999996 5.349558837890625 1.6814812499999996 Q 5.3761838378906255 1.6940437499999996 5.394933837890625 1.7186062499999997 Q 5.413683837890625 1.7431687499999995 5.4238088378906255 1.7795437499999995 Q 5.433933837890625 1.8159187499999996 5.433933837890625 1.8631687499999996 Q 5.433933837890625 1.9051687499999996 5.4226838378906255 1.9413562499999997 Q 5.411433837890625 1.9775437499999995 5.390433837890625 2.0039812499999994 Q 5.369433837890625 2.0304187499999995 5.338871337890625 2.0456062499999996 Q 5.308308837890626 2.0607937499999998 5.270058837890625 2.0607937499999998 Q 5.2348088378906255 2.0607937499999998 5.209871337890625 2.0491687499999998 Q 5.184933837890625 2.0375437499999998 5.1658088378906255 2.0161687499999994 L 5.1658088378906255 2.1841687499999995 L 5.099058837890626 2.1841687499999995 M 5.268183837890625 1.7229187499999996 Q 5.2355588378906255 1.7229187499999996 5.210996337890625 1.7379187499999995 Q 5.186433837890625 1.7529187499999996 5.1658088378906255 1.7802937499999996 L 5.1658088378906255 1.9640437499999996 Q 5.184183837890625 1.9887937499999995 5.206121337890625 1.9989187499999996 Q 5.228058837890625 2.0090437499999996 5.255058837890625 2.0090437499999996 Q 5.307933837890626 2.0090437499999996 5.336433837890626 1.9711687499999995 Q 5.364933837890625 1.9332937499999996 5.364933837890625 1.8631687499999996 Q 5.364933837890625 1.8260437499999995 5.358371337890626 1.7994187499999996 Q 5.3518088378906254 1.7727937499999995 5.339433837890625 1.7557312499999995 Q 5.327058837890625 1.7386687499999995 5.309058837890626 1.7307937499999997 Q 5.291058837890625 1.7229187499999996 5.268183837890625 1.7229187499999996 M 5.792622802734376 2.0555437499999996 L 5.762997802734375 2.0555437499999996 Q 5.753247802734375 2.0555437499999996 5.747247802734376 2.0525437499999994 Q 5.741247802734375 2.0495437499999998 5.739372802734375 2.0397937499999994 L 5.731872802734375 2.0045437499999994 Q 5.716872802734375 2.0180437499999995 5.702622802734376 2.0287312499999994 Q 5.688372802734375 2.0394187499999994 5.6726228027343755 2.0467312499999997 Q 5.656872802734376 2.0540437499999995 5.639060302734375 2.0577937499999996 Q 5.621247802734375 2.0615437499999993 5.599497802734375 2.0615437499999993 Q 5.577372802734375 2.0615437499999993 5.558060302734376 2.0553562499999996 Q 5.538747802734376 2.0491687499999998 5.524497802734375 2.0367937499999997 Q 5.5102478027343755 2.0244187499999997 5.501810302734375 2.0054812499999994 Q 5.493372802734376 1.9865437499999996 5.493372802734376 1.9606687499999995 Q 5.493372802734376 1.9381687499999996 5.505747802734375 1.9173562499999997 Q 5.518122802734375 1.8965437499999995 5.545685302734375 1.8804187499999996 Q 5.573247802734375 1.8642937499999996 5.617872802734375 1.8539812499999995 Q 5.662497802734375 1.8436687499999995 5.726997802734376 1.8421687499999995 L 5.726997802734376 1.8125437499999997 Q 5.726997802734376 1.7682937499999996 5.708060302734375 1.7456062499999996 Q 5.689122802734375 1.7229187499999996 5.651997802734376 1.7229187499999996 Q 5.6276228027343755 1.7229187499999996 5.610935302734376 1.7291062499999996 Q 5.594247802734375 1.7352937499999996 5.582060302734376 1.7429812499999995 Q 5.569872802734375 1.7506687499999996 5.561060302734376 1.7568562499999996 Q 5.552247802734375 1.7630437499999996 5.543622802734375 1.7630437499999996 Q 5.536872802734376 1.7630437499999996 5.5318103027343755 1.7594812499999994 Q 5.526747802734375 1.7559187499999995 5.523747802734375 1.7506687499999996 L 5.511747802734376 1.7292937499999996 Q 5.543247802734375 1.6989187499999996 5.5796228027343755 1.6839187499999997 Q 5.615997802734375 1.6689187499999996 5.660247802734375 1.6689187499999996 Q 5.692122802734375 1.6689187499999996 5.716872802734375 1.6794187499999995 Q 5.741622802734375 1.6899187499999995 5.758497802734375 1.7086687499999995 Q 5.775372802734376 1.7274187499999996 5.783997802734375 1.7540437499999997 Q 5.792622802734376 1.7806687499999996 5.792622802734376 1.8125437499999997 L 5.792622802734376 2.0555437499999996 M 5.619372802734375 2.0146687499999993 Q 5.636997802734375 2.0146687499999993 5.651622802734376 2.0111062499999997 Q 5.666247802734375 2.0075437499999995 5.679185302734376 2.0009812499999997 Q 5.692122802734375 1.9944187499999995 5.703935302734376 1.9850437499999996 Q 5.715747802734375 1.9756687499999996 5.726997802734376 1.9636687499999996 L 5.726997802734376 1.8845437499999995 Q 5.680872802734376 1.8860437499999996 5.6486228027343754 1.8918562499999996 Q 5.616372802734375 1.8976687499999996 5.596122802734375 1.9070437499999995 Q 5.575872802734375 1.9164187499999996 5.566685302734375 1.9291687499999997 Q 5.5574978027343755 1.9419187499999995 5.5574978027343755 1.9576687499999996 Q 5.5574978027343755 1.9726687499999995 5.562372802734376 1.9835437499999995 Q 5.567247802734375 1.9944187499999995 5.575497802734375 2.0013562499999997 Q 5.583747802734376 2.0082937499999995 5.594997802734375 2.0114812499999997 Q 5.606247802734376 2.0146687499999993 5.619372802734375 2.0146687499999993 M 5.968699584960937 1.5031687499999995 L 5.968699584960937 2.0555437499999996 L 5.901949584960938 2.0555437499999996 L 5.901949584960938 1.5031687499999995 L 5.968699584960937 1.5031687499999995" fill="#fbe5c1" fill-rule="nonzero"></path></g></g><defs><clipPath id="SvgjsClipPath13516"><path d=" M -5.281539418124554 -1.1281005978008538 h 4.881539418124554 v 4.311744945601707 h -4.881539418124554 Z"></path></clipPath><clipPath id="SvgjsClipPath1351404a0c36e-83c2-4ff8-bd25-50a6a299090f"><path d=" M -5.281539418124554 -1.1281005978008538 L -0.40000000000000036 -1.1281005978008538 L -0.40000000000000036 3.183644347800853 L -5.281539418124554 3.183644347800853 Z"></path></clipPath></defs></svg>